
            <svg data-logo="logo" xmlns="http://www.w3.org/2000/svg" viewBox="0 0 306 41">
                <g id="logogram" transform="translate(0, 0)"><path fill-rule="evenodd" clip-rule="evenodd" d="M29.4554 3.35714V0.931396H35V23.2829C35 32.9479 27.165 40.7829 17.5 40.7829C8.24271 40.7829 0.664262 33.5949 0.0413736 24.4958H0V0.931396H5.54455V3.35714L14.901 3.35714V0.931396H20.4455V3.35714L29.4554 3.35714ZM29.4554 23.2829V19.881C28.8318 20.524 28.1633 21.1346 27.4539 21.7097C25.1121 23.6084 22.3612 25.0917 19.369 26.0965C16.3764 27.1015 13.1833 27.6146 9.96797 27.6146H6.35343C8.08848 32.0761 12.425 35.2383 17.5 35.2383C24.1028 35.2383 29.4554 29.8857 29.4554 23.2829ZM15.4269 19.1072C14.3706 20.2269 13.18 21.1978 11.8852 21.9954C13.8545 21.8417 15.7827 21.4521 17.6038 20.8405C20.013 20.0314 22.1698 18.8559 23.9621 17.4029C25.7535 15.9504 27.136 14.2575 28.0645 12.44C28.6507 11.2926 29.0518 10.1045 29.2674 8.90169H20.2671C20.0641 10.3759 19.6891 11.8227 19.1475 13.2087C18.2893 15.4049 17.0275 17.4105 15.4269 19.1072ZM5.54455 18.6798V8.90169H14.6483C14.4948 9.68424 14.2724 10.4507 13.9832 11.1907C13.3786 12.738 12.4962 14.1339 11.3938 15.3024C10.2918 16.4706 8.99228 17.388 7.57404 18.0107C6.91535 18.2999 6.23601 18.5234 5.54455 18.6798Z" fill="#1D3AA7"/></g>
                <g id="logotype" transform="translate(41, 3)"><path fill="#111111" d="M8.45 7.87L24.24 7.87L25.08 12.00Q24.13 11.51 23.10 11.22Q22.07 10.92 20.73 10.80Q19.41 10.67 17.48 10.67L17.48 10.67L12.58 10.67L12.58 19.74L15.56 19.74Q17.52 19.74 19.48 19.65Q21.44 19.56 23.33 19.11L23.33 19.11L23.33 23.17Q21.44 22.71 19.48 22.63Q17.52 22.54 15.56 22.54L15.56 22.54L12.58 22.54L12.58 32.20L17.76 32.20Q20.63 32.20 22.78 31.90Q24.94 31.61 26.34 30.87L26.34 30.87L25.50 35L8.45 35Q8.91 33.11 8.99 31.15Q9.08 29.19 9.08 27.23L9.08 27.23L9.08 15.64Q9.08 13.68 8.99 11.72Q8.91 9.76 8.45 7.87L8.45 7.87ZM46.32 35L30.54 35Q30.99 33.11 31.08 31.15Q31.16 29.19 31.16 27.23L31.16 27.23L31.16 15.64Q31.16 13.68 31.08 11.72Q30.99 9.76 30.54 7.87L30.54 7.87L35.30 7.87Q34.84 9.76 34.75 11.72Q34.66 13.68 34.66 15.64L34.66 15.64L34.66 32.20L39.56 32.20Q41.49 32.20 42.82 32.08Q44.15 31.95 45.18 31.66Q46.22 31.36 47.16 30.87L47.16 30.87L46.32 35ZM82.06 20.58L82.06 32.55Q79.64 34.13 77.16 34.81Q74.67 35.49 71.94 35.49L71.94 35.49Q68.83 35.49 66.24 34.42Q63.65 33.35 61.77 31.43Q59.90 29.50 58.87 26.95Q57.84 24.39 57.84 21.42L57.84 21.42Q57.84 18.44 58.83 15.89Q59.83 13.33 61.67 11.43Q63.51 9.52 66.01 8.45Q68.51 7.38 71.56 7.38L71.56 7.38Q75.02 7.38 77.19 8.05Q79.36 8.71 81.08 10.04L81.08 10.04L81.64 15.12L81.53 15.12Q80.13 12.98 77.77 11.58Q75.41 10.18 71.56 10.18L71.56 10.18Q68.55 10.18 66.31 11.72Q64.07 13.26 62.84 15.80Q61.62 18.34 61.62 21.42L61.62 21.42Q61.62 23.73 62.39 25.76Q63.16 27.79 64.59 29.35Q66.03 30.91 67.99 31.80Q69.95 32.69 72.33 32.69L72.33 32.69Q74.18 32.69 75.83 32.23Q77.47 31.78 78.56 31.08L78.56 31.08L78.56 23.41Q76.98 23.45 75.44 23.55Q73.90 23.66 72.36 24.04L72.36 24.04L72.36 20.58L82.06 20.58ZM86.43 7.87L91.19 7.87Q90.74 9.76 90.65 11.72Q90.56 13.68 90.56 15.64L90.56 15.64L90.56 22.99Q90.56 25.73 91.05 27.91Q91.54 30.10 92.98 31.38Q94.41 32.66 97.18 32.66L97.18 32.66Q99.98 32.66 101.39 31.38Q102.81 30.10 103.30 27.91Q103.79 25.73 103.79 22.99L103.79 22.99L103.79 15.64Q103.79 13.68 103.70 11.72Q103.62 9.76 103.16 7.87L103.16 7.87L107.92 7.87Q107.47 9.76 107.38 11.72Q107.29 13.68 107.29 15.64L107.29 15.64L107.29 22.99Q107.29 26.88 106.26 29.68Q105.23 32.48 102.99 33.98Q100.75 35.49 97.18 35.49L97.18 35.49Q93.61 35.49 91.38 33.98Q89.16 32.48 88.11 29.68Q87.06 26.88 87.06 22.99L87.06 22.99L87.06 15.64Q87.06 13.68 86.97 11.72Q86.89 9.76 86.43 7.87L86.43 7.87ZM112.30 7.87L128.08 7.87L128.92 12.00Q127.98 11.51 126.94 11.22Q125.91 10.92 124.58 10.80Q123.25 10.67 121.33 10.67L121.33 10.67L116.43 10.67L116.43 19.74L119.40 19.74Q121.36 19.74 123.32 19.65Q125.28 19.56 127.17 19.11L127.17 19.11L127.17 23.17Q125.28 22.71 123.32 22.63Q121.36 22.54 119.40 22.54L119.40 22.54L116.43 22.54L116.43 32.20L121.61 32.20Q124.48 32.20 126.63 31.90Q128.78 31.61 130.18 30.87L130.18 30.87L129.34 35L112.30 35Q112.75 33.11 112.84 31.15Q112.93 29.19 112.93 27.23L112.93 27.23L112.93 15.64Q112.93 13.68 112.84 11.72Q112.75 9.76 112.30 7.87L112.30 7.87ZM134.38 7.87L139.31 7.87L153.88 30.45L153.88 15.61Q153.88 13.65 153.79 11.69Q153.70 9.73 153.25 7.84L153.25 7.84L157.83 7.84Q157.38 9.73 157.29 11.69Q157.20 13.65 157.20 15.61L157.20 15.61L157.20 27.20Q157.20 29.16 157.29 31.13Q157.38 33.11 157.83 35L157.83 35L152.79 35L138.34 12.60L138.34 27.23Q138.34 29.19 138.42 31.15Q138.51 33.11 138.97 35L138.97 35L134.38 35Q134.84 33.11 134.92 31.15Q135.01 29.19 135.01 27.23L135.01 27.23L135.01 15.64Q135.01 13.68 134.92 11.72Q134.84 9.76 134.38 7.87L134.38 7.87ZM162.73 7.87L171.94 7.87Q175.50 7.87 178.11 9.12Q180.72 10.36 182.44 12.37Q184.15 14.38 184.97 16.76Q185.80 19.14 185.80 21.42L185.80 21.42Q185.80 23.70 184.97 26.07Q184.15 28.45 182.44 30.48Q180.72 32.52 178.11 33.76Q175.50 35 171.94 35L171.94 35L162.73 35Q163.19 33.11 163.27 31.15Q163.36 29.19 163.36 27.23L163.36 27.23L163.36 15.64Q163.36 13.68 163.27 11.72Q163.19 9.76 162.73 7.87L162.73 7.87ZM166.86 10.67L166.86 32.20L170.88 32.20Q174.21 32.20 176.36 31.18Q178.52 30.17 179.76 28.54Q181 26.91 181.51 25.04Q182.02 23.17 182.02 21.42L182.02 21.42Q182.02 19.67 181.51 17.80Q181 15.92 179.76 14.30Q178.52 12.67 176.36 11.67Q174.21 10.67 170.88 10.67L170.88 10.67L166.86 10.67ZM202 35.49L202 35.49Q198.99 35.49 196.47 34.42Q193.95 33.35 192.11 31.43Q190.28 29.50 189.26 26.95Q188.25 24.39 188.25 21.42L188.25 21.42Q188.25 18.44 189.26 15.89Q190.28 13.33 192.11 11.43Q193.95 9.52 196.47 8.45Q198.99 7.38 202 7.38L202 7.38Q205.01 7.38 207.53 8.43Q210.05 9.48 211.91 11.39Q213.76 13.30 214.78 15.85Q215.79 18.41 215.79 21.42L215.79 21.42Q215.79 24.39 214.78 26.95Q213.76 29.50 211.91 31.43Q210.05 33.35 207.53 34.42Q205.01 35.49 202 35.49ZM201.97 32.69L201.97 32.69Q204.24 32.69 206.10 31.78Q207.95 30.87 209.28 29.31Q210.61 27.75 211.31 25.71Q212.01 23.66 212.01 21.42L212.01 21.42Q212.01 19.14 211.31 17.11Q210.61 15.08 209.28 13.53Q207.95 11.97 206.10 11.08Q204.24 10.18 201.97 10.18L201.97 10.18Q199.69 10.18 197.85 11.08Q196.02 11.97 194.72 13.54Q193.43 15.12 192.73 17.13Q192.03 19.14 192.03 21.42L192.03 21.42Q192.03 23.66 192.73 25.71Q193.43 27.75 194.72 29.31Q196.02 30.87 197.85 31.78Q199.69 32.69 201.97 32.69ZM218.24 7.87L223.00 7.87Q222.55 9.76 222.46 11.72Q222.37 13.68 222.37 15.64L222.37 15.64L222.37 22.99Q222.37 25.73 222.86 27.91Q223.35 30.10 224.79 31.38Q226.22 32.66 228.99 32.66L228.99 32.66Q231.79 32.66 233.20 31.38Q234.62 30.10 235.11 27.91Q235.60 25.73 235.60 22.99L235.60 22.99L235.60 15.64Q235.60 13.68 235.51 11.72Q235.43 9.76 234.97 7.87L234.97 7.87L239.73 7.87Q239.28 9.76 239.19 11.72Q239.10 13.68 239.10 15.64L239.10 15.64L239.10 22.99Q239.10 26.88 238.07 29.68Q237.04 32.48 234.80 33.98Q232.56 35.49 228.99 35.49L228.99 35.49Q225.42 35.49 223.19 33.98Q220.97 32.48 219.92 29.68Q218.87 26.88 218.87 22.99L218.87 22.99L218.87 15.64Q218.87 13.68 218.78 11.72Q218.70 9.76 218.24 7.87L218.24 7.87ZM244.60 7.87L263.36 7.87L263.36 9.48L248.73 32.20L256.85 32.20Q258.77 32.20 260.10 32.08Q261.43 31.95 262.46 31.66Q263.50 31.36 264.44 30.87L264.44 30.87L263.60 35L244.00 35L244.00 33.39L258.56 10.67L251.35 10.67Q249.46 10.67 248.11 10.80Q246.77 10.92 245.73 11.22Q244.70 11.51 243.76 12.00L243.76 12.00L244.60 7.87Z"/></g>
                
            </svg>
        